# xmcd
#
# Track frame offsets:
#	150
#	22230
#	39850
#	62627
#	86412
#	108775
#	126540
#	156365
#	169260
#	186407
#	202507
#
# Disc length: 2982 seconds
#
# Revision: 1
# Processed by: cddbd v1.4PL0 Copyright (c) Steve Scherf et al.
# Submitted via: audiograbber 1.81.02
#
DISCID=8e0ba40b
DTITLE=Matthew Skoller Band - Bone to Pick With You
DYEAR=1900
DGENRE=
TTITLE0=Love Her Don't Shove Her
TTITLE1=Bone To Pick With You
TTITLE2=Turn To Me
TTITLE3=Can't Get Enuff of Nothin'
TTITLE4=How Long Can A Fool Go Wrong
TTITLE5=If Love Ain't So Bad
TTITLE6=Dangerous Game
TTITLE7=The Same Thing Will Happen to You
TTITLE8=Talk is Cheap
TTITLE9=Bed Bugs
TTITLE10=Bonus Track
EXTD=
EXTT0=
EXTT1=
EXTT2=
EXTT3=
EXTT4=
EXTT5=
EXTT6=
EXTT7=
EXTT8=
EXTT9=
EXTT10=
PLAYORDER=
